<?xml version="1.0" standalone="no"?>
<!DOCTYPE svg PUBLIC "-//W3C//DTD SVG 20010904//EN"
 "http://www.w3.org/TR/2001/REC-SVG-20010904/DTD/svg10.dtd">
<svg version="1.0" xmlns="http://www.w3.org/2000/svg"
 width="375.000000pt" height="306.000000pt" viewBox="0 0 375.000000 306.000000"
 preserveAspectRatio="xMidYMid meet">
<g transform="translate(0.000000,306.000000) scale(0.100000,-0.100000)"
fill="#000000" stroke="none">
<path d="M1843 2972 c-29 -23 -50 -129 -33 -172 5 -10 18 57 19 95 1 22 5 45
9 52 4 6 7 -80 7 -190 0 -111 3 -235 7 -275 7 -69 6 -72 -12 -62 -13 7 -21 7
-26 -2 -4 -7 -3 -8 4 -4 7 4 12 3 12 -3 0 -5 -8 -9 -18 -8 -17 1 -17 3 3 42
12 22 20 49 18 60 -2 11 -6 79 -9 150 -5 98 -10 133 -21 142 -8 6 -12 16 -8
22 3 6 -1 11 -9 11 -9 0 -16 7 -16 15 0 8 -4 15 -10 15 -5 0 -7 6 -4 14 3 8
-3 19 -14 25 -19 10 -19 9 -7 -27 7 -20 26 -62 42 -92 27 -51 28 -61 28 -185
0 -120 -2 -135 -24 -179 -14 -26 -38 -58 -53 -72 -32 -26 -142 -64 -192 -65
-17 0 -58 -6 -91 -14 l-60 -13 75 -1 c105 -1 201 22 299 71 127 65 127 63 123
281 -3 127 -8 192 -18 216 -17 39 -18 55 -4 46 12 -8 12 17 1 68 -5 22 -5 37
0 37 17 0 32 -55 34 -125 0 -38 5 -147 10 -240 11 -224 5 -237 -141 -300 -72
-32 -76 -35 -44 -35 64 0 140 -13 140 -23 0 -5 -15 -7 -35 -4 -31 5 -35 3 -35
-17 0 -12 7 -49 16 -81 57 -217 60 -235 44 -235 -5 0 -12 17 -15 38 -4 20 -17
73 -30 117 -13 44 -27 104 -31 133 l-7 52 -91 -1 c-75 -1 -85 -2 -56 -10 48
-13 150 -61 150 -71 0 -11 -1 -11 -75 23 -77 36 -137 46 -180 29 -29 -12 -26
-14 78 -38 74 -18 106 -30 103 -38 -3 -7 0 -15 7 -17 7 -2 9 -7 6 -11 -3 -3
-30 5 -60 19 -91 42 -146 36 -284 -31 -89 -44 -119 -63 -131 -86 -15 -28 -14
-31 8 -55 28 -29 185 -110 233 -119 19 -3 35 -12 35 -20 0 -10 -11 -9 -52 5
-79 28 -141 56 -188 86 -23 14 -44 24 -47 21 -13 -13 10 -77 32 -92 48 -31
125 -53 229 -65 58 -7 106 -16 106 -21 0 -15 -83 -5 -295 37 l-30 6 22 -19
c19 -17 98 -29 221 -35 6 0 12 -4 12 -10 0 -9 -62 -6 -362 20 -47 4 -68 2 -68
-5 0 -6 6 -9 14 -6 7 3 53 -2 100 -11 52 -10 104 -14 127 -10 27 5 39 3 39 -5
0 -7 8 -9 23 -5 15 4 18 4 8 -3 -7 -5 -32 -7 -55 -5 -22 3 -38 3 -35 0 5 -7
90 -15 167 -16 24 -1 42 -6 42 -12 0 -9 -23 -10 -77 -6 -45 3 -67 2 -53 -3
l25 -8 -25 -2 c-14 -1 -36 -2 -50 -1 l-25 1 25 -11 c15 -6 56 -8 100 -5 41 3
78 5 83 6 4 0 7 7 7 15 0 9 9 15 21 15 11 0 27 7 35 15 14 13 14 16 -2 22 -10
4 -19 2 -22 -5 -5 -15 -122 -16 -122 -2 0 6 22 10 49 10 67 0 112 10 118 27 8
20 -26 53 -55 53 -16 0 -22 4 -19 14 8 22 -27 52 -77 67 -25 7 -46 17 -46 21
0 4 -6 8 -14 8 -7 0 -19 7 -26 15 -7 8 -16 13 -20 10 -10 -6 -76 44 -73 55 2
5 -3 7 -10 4 -8 -3 -14 2 -14 10 0 8 4 13 9 10 4 -3 8 2 8 10 0 8 5 18 12 22
7 4 8 3 4 -5 -4 -6 8 -3 27 8 19 11 38 18 41 15 3 -2 4 -1 1 2 -5 8 54 41 81
46 10 2 22 6 25 11 8 12 69 11 119 -2 25 -7 50 -13 57 -14 7 -2 16 -6 19 -10
14 -13 48 -7 69 13 l21 20 24 -57 c14 -32 23 -66 22 -75 -2 -10 1 -18 6 -18 5
0 10 -6 9 -12 -1 -42 5 -59 27 -69 16 -8 29 -8 43 -1 19 10 20 8 16 -29 -4
-41 9 -69 32 -69 17 0 56 36 48 44 -4 4 0 4 9 1 16 -6 16 -9 0 -33 -14 -21
-14 -24 -2 -18 12 7 13 6 3 -4 -8 -9 -9 -19 -2 -32 12 -22 39 -24 39 -2 0 8 5
12 10 9 6 -3 11 6 11 22 3 52 4 58 10 68 3 6 5 21 4 35 -1 21 4 25 24 25 21 0
26 7 38 50 15 60 16 78 3 70 -5 -3 -10 -3 -11 2 -7 102 -6 124 8 168 9 28 22
64 30 82 7 17 13 35 13 40 0 22 47 48 85 48 63 -1 92 -14 106 -47 7 -18 15
-25 19 -18 5 8 9 7 13 -3 3 -8 0 -20 -6 -26 -9 -9 -8 -10 7 -5 13 5 17 4 13
-3 -4 -6 0 -14 9 -17 8 -3 12 -11 8 -17 -4 -8 -3 -9 4 -5 8 5 12 -1 12 -17 0
-14 7 -31 16 -38 9 -7 20 -24 25 -37 5 -13 13 -20 19 -17 5 3 10 -2 10 -12 0
-10 5 -25 11 -33 9 -12 10 -11 4 5 -5 15 3 11 31 -15 37 -35 37 -35 -8 25 -25
33 -60 87 -79 120 -41 73 -144 181 -182 190 -44 11 -93 -3 -126 -37 -17 -17
-28 -35 -25 -39 2 -5 -6 -28 -18 -51 -21 -39 -23 -55 -22 -190 0 -82 -3 -148
-8 -148 -4 0 -8 19 -8 42 0 59 -17 36 -23 -32 -7 -77 -37 -200 -49 -200 -6 0
-7 8 -3 17 13 35 26 113 22 130 -3 13 -7 8 -12 -14 -8 -35 -12 -38 -33 -25 -9
6 -11 21 -6 50 4 23 10 40 14 37 3 -2 5 6 4 18 -1 12 -3 30 -3 40 -1 9 -5 17
-10 17 -11 0 -24 -69 -26 -139 0 -32 -6 -56 -13 -59 -25 -8 -5 145 35 268 8
25 15 52 15 60 0 8 6 22 14 30 14 16 43 122 74 270 25 114 44 140 104 140 24
0 53 -8 71 -20 17 -11 40 -20 53 -20 65 0 175 -102 212 -198 45 -115 96 -205
146 -258 29 -30 57 -54 64 -54 7 0 0 10 -15 21 -38 31 -106 119 -99 130 3 5 1
9 -4 9 -12 0 -45 80 -37 88 3 3 -2 14 -12 24 -9 10 -13 18 -10 18 3 0 -12 34
-33 76 l-38 76 23 24 c12 12 20 25 17 28 -3 3 -1 6 5 6 18 0 -3 71 -28 94 -12
12 -19 15 -15 9 4 -7 2 -13 -3 -13 -6 0 -11 4 -11 9 0 14 -42 4 -52 -11 -4 -7
-8 -9 -8 -4 0 5 -9 -3 -21 -18 -11 -14 -18 -30 -15 -34 3 -5 -1 -9 -9 -9 -8 0
-15 3 -15 6 0 4 -12 8 -27 9 -16 1 -36 12 -46 24 -14 17 -28 21 -70 21 -78 -1
-96 -7 -123 -39 -14 -16 -23 -24 -21 -19 9 19 -18 55 -56 74 -20 10 -34 15
-31 10 3 -5 -2 -9 -11 -9 -8 0 -20 11 -25 25 -8 22 -16 155 -10 180 1 6 1 12
0 15 -1 3 -3 19 -6 35 -2 17 -4 36 -5 43 -1 6 -6 12 -11 12 -4 0 -8 7 -8 16 0
8 -4 13 -9 10 -5 -4 -11 -2 -13 3 -1 6 -13 2 -25 -7z m132 -359 c11 -15 15
-16 30 -3 16 14 17 13 11 -8 -6 -17 -3 -27 11 -37 17 -14 17 -14 -4 -15 -18 0
-23 -6 -24 -27 0 -28 -1 -28 -11 -5 -12 24 -23 28 -33 12 -12 -20 -26 -10 -15
10 9 16 8 22 -5 26 -22 9 -19 24 6 24 16 0 19 4 14 20 -8 25 3 26 20 3z m496
-7 c16 14 19 14 19 3 0 -8 -5 -20 -11 -26 -8 -8 -5 -13 12 -19 l24 -8 -25 -6
c-19 -5 -24 -12 -22 -31 l3 -24 -19 24 c-13 16 -22 20 -26 12 -12 -19 -28 -13
-17 7 7 13 5 20 -12 29 l-22 12 23 1 c17 0 22 6 23 28 l0 27 16 -23 c15 -21
17 -22 34 -6z m-423 -158 c-2 -35 -7 -68 -11 -74 -4 -7 -9 -27 -11 -45 -3 -19
-9 -45 -14 -59 -5 -14 -11 -29 -12 -35 -4 -18 -10 -35 -17 -52 -4 -10 -8 -25
-9 -33 -1 -8 -12 -37 -25 -65 l-22 -50 -13 60 -12 60 -1 -115 c-1 -78 -4 -110
-11 -100 -5 8 -10 65 -10 127 0 61 -3 114 -7 116 -5 3 -7 -20 -5 -51 l2 -57
-17 30 c-9 17 -18 36 -19 44 -2 8 -5 25 -8 37 -5 20 -3 22 27 18 17 -2 26 -1
20 2 -9 4 -10 11 -4 23 6 10 6 23 0 32 -5 7 -8 28 -8 44 1 29 1 29 9 5 7 -22
8 -20 9 14 1 31 4 36 14 28 10 -9 17 -1 30 36 9 26 17 58 19 72 2 20 10 26 33
28 17 2 34 8 40 13 5 5 15 9 22 9 11 0 13 -15 11 -62z"/>
<path d="M1969 2939 c-20 -21 -33 -39 -28 -41 5 -2 10 -14 11 -28 4 -30 22
-45 64 -53 21 -4 38 -1 50 9 11 9 12 13 4 9 -8 -4 -3 3 12 15 23 17 27 27 22
48 -4 15 -12 34 -19 42 -7 8 -15 22 -18 30 -4 10 -6 11 -6 2 -1 -7 -5 -10 -11
-7 -27 16 -48 10 -81 -26z m79 -7 c17 17 28 2 12 -17 -11 -14 -10 -17 8 -22
30 -7 28 -23 -2 -23 -20 0 -23 -4 -19 -22 4 -23 4 -23 -12 -3 -13 16 -19 18
-35 7 -21 -13 -25 -6 -10 18 7 11 3 18 -13 27 -22 12 -22 12 6 13 25 0 27 3
21 28 l-6 27 19 -23 c14 -18 21 -20 31 -10z"/>
<path d="M2385 2941 c-3 -6 -10 -9 -14 -7 -4 3 -14 -6 -21 -19 -7 -13 -16 -22
-20 -20 -6 4 -7 -19 -2 -74 2 -17 42 -37 65 -33 4 1 7 -3 7 -8 0 -7 8 -7 22 1
37 20 57 44 53 64 -2 11 -4 30 -4 43 -1 28 -12 28 -29 1 -11 -18 -11 -23 5
-35 17 -13 17 -13 -4 -14 -18 0 -23 -6 -23 -27 -1 -28 -1 -28 -13 -6 -9 16
-16 20 -27 13 -23 -15 -34 -12 -19 6 11 14 9 19 -11 35 l-25 20 25 -3 c20 -2
26 2 28 20 3 21 5 22 16 7 13 -18 41 -12 50 11 3 9 -1 14 -12 14 -10 0 -23 5
-29 11 -8 8 -13 8 -18 0z"/>
<path d="M1696 2865 c5 -54 8 -68 17 -82 4 -6 1 -14 -5 -16 -10 -4 -10 -6 0
-6 7 -1 10 -5 7 -11 -3 -5 -2 -10 4 -10 5 0 12 -19 14 -42 4 -38 4 -37 4 10 0
28 -5 52 -9 52 -5 0 -6 5 -3 11 10 15 -3 93 -19 115 -12 16 -13 14 -10 -21z"/>
<path d="M695 2870 c5 -8 1 -11 -11 -8 -26 5 -52 -19 -65 -61 -10 -30 -9 -36
7 -48 11 -8 18 -20 16 -26 -2 -7 0 -9 4 -5 4 4 13 3 20 -3 8 -6 26 -8 44 -4
52 11 83 80 52 116 -19 23 -78 57 -67 39z m20 -40 c-5 -17 -2 -20 21 -20 27 0
27 -1 8 -14 -16 -13 -17 -18 -6 -35 7 -12 8 -21 3 -21 -6 0 -13 5 -16 10 -10
17 -25 11 -35 -12 -8 -22 -9 -21 -9 6 -1 25 -4 28 -26 24 -30 -6 -34 8 -5 17
16 5 18 10 10 25 -15 27 -12 34 6 19 15 -12 18 -11 28 4 15 23 29 22 21 -3z"/>
<path d="M1430 2860 c0 -5 4 -10 9 -10 6 0 39 -22 75 -50 37 -27 66 -47 66
-43 0 12 37 -44 58 -88 25 -52 28 -105 8 -153 -15 -36 -42 -58 -130 -105 -32
-17 -53 -31 -46 -31 11 0 26 6 105 40 17 8 34 13 38 11 5 -1 6 3 2 9 -3 5 3
10 14 10 11 0 23 4 26 10 3 6 -1 7 -12 4 -15 -4 -15 -3 2 8 18 12 23 25 27 66
1 6 4 12 8 12 4 0 8 20 8 45 1 25 -1 45 -6 45 -4 0 -9 10 -9 22 -1 13 -10 29
-20 36 -10 7 -17 19 -15 25 2 7 1 9 -3 5 -9 -8 -27 9 -44 40 -6 12 -31 34 -54
49 -23 14 -45 30 -48 35 -8 13 -59 20 -59 8z"/>
<path d="M856 2834 c-7 -18 21 -57 35 -48 4 2 6 -4 4 -14 -2 -13 2 -18 16 -17
10 1 22 4 25 8 4 3 19 0 35 -9 16 -8 29 -11 29 -7 0 4 7 -3 16 -15 8 -12 22
-22 30 -22 8 0 13 -4 11 -9 -1 -5 7 -17 18 -26 11 -9 13 -13 5 -9 -9 4 -7 -2
6 -17 25 -29 34 -52 40 -104 3 -22 7 -46 9 -52 7 -21 -30 -95 -69 -138 -20
-22 -36 -36 -36 -31 0 5 -9 1 -20 -9 -10 -9 -26 -15 -35 -11 -9 3 -14 2 -11
-2 3 -5 -27 -17 -67 -27 -40 -10 -90 -28 -112 -41 -49 -29 -33 -31 36 -4 29
12 58 19 66 16 8 -4 11 -1 8 5 -4 6 -1 9 6 8 8 -1 21 0 29 4 8 3 31 8 51 11
40 7 140 90 164 137 18 33 19 118 4 173 -26 93 -99 163 -215 207 -35 13 -64
29 -64 36 0 13 47 -4 140 -50 98 -48 160 -145 168 -263 6 -91 -13 -132 -84
-188 -29 -22 -52 -41 -51 -42 1 -1 41 5 89 15 71 14 94 23 131 54 144 118 181
191 142 283 -17 42 -138 170 -167 177 -18 5 -19 4 -4 -12 9 -10 16 -24 16 -31
0 -7 3 -10 6 -7 4 4 15 -3 25 -15 11 -11 19 -17 19 -12 0 5 4 4 8 -2 4 -5 18
-18 32 -27 14 -10 18 -17 10 -17 -9 0 -8 -5 6 -15 10 -8 15 -15 9 -15 -6 0 -6
-3 0 -8 6 -4 15 -23 21 -42 10 -32 7 -58 -13 -110 -4 -8 -6 -17 -6 -20 2 -11
-86 -87 -93 -81 -4 3 -4 1 0 -6 5 -10 -23 -34 -44 -37 -3 -1 -4 -4 -3 -8 1 -3
-9 -5 -22 -3 -13 1 -22 -2 -19 -6 3 -5 -2 -9 -10 -9 -13 0 -13 6 3 40 10 22
21 43 24 47 12 12 7 124 -7 151 -7 15 -12 37 -11 50 1 13 -3 26 -8 29 -6 4 -7
1 -2 -7 5 -9 4 -11 -4 -6 -6 4 -9 11 -6 16 12 19 -76 108 -134 137 -22 11 -38
23 -36 27 3 3 2 4 -1 2 -3 -2 -24 4 -47 15 -52 23 -83 24 -91 3z"/>
<path d="M1410 2842 c0 -12 24 -38 62 -68 8 -6 31 -19 51 -29 20 -9 34 -21 31
-26 -3 -5 1 -6 9 -3 15 5 21 -6 42 -90 8 -32 10 -58 4 -73 -5 -13 -6 -23 -4
-23 3 0 -4 -9 -15 -20 -11 -11 -25 -20 -30 -20 -6 0 -13 -7 -17 -16 -3 -9 -30
-27 -60 -40 -54 -24 -76 -43 -25 -22 147 60 173 83 180 162 4 46 0 62 -21 98
-24 42 -104 114 -163 147 -16 9 -32 21 -36 26 -5 6 -8 5 -8 -3z"/>
<path d="M1268 2834 c-3 -3 17 -28 45 -55 28 -27 53 -46 56 -43 3 3 -4 14 -16
24 -12 9 -20 20 -16 23 3 3 -8 17 -23 31 -30 27 -37 30 -46 20z"/>
<path d="M1757 2720 c3 -41 6 -87 6 -102 0 -15 3 -25 7 -23 4 2 7 -2 7 -10 0
-8 -3 -12 -7 -10 -3 2 -5 -26 -3 -63 2 -48 0 -60 -6 -42 l-9 25 -1 -28 c-1
-40 -50 -113 -66 -99 -5 4 -5 2 -1 -5 4 -8 -5 -14 -29 -19 -19 -3 -35 -9 -35
-13 0 -4 -12 -8 -26 -9 -14 -1 -33 -7 -42 -13 -36 -22 74 2 128 29 47 23 59
35 82 82 26 52 28 61 25 180 -2 93 -7 134 -19 160 l-17 35 6 -75z"/>
<path d="M1380 2725 c0 -8 11 -31 25 -51 23 -34 31 -75 26 -134 -4 -44 -42
-104 -97 -152 -30 -27 -52 -48 -49 -48 13 0 95 45 95 53 0 4 10 6 23 2 21 -6
21 -5 3 9 -19 15 -19 16 7 36 15 12 26 24 25 28 -1 4 4 20 10 35 26 62 10 156
-31 190 -12 10 -16 16 -9 12 18 -9 15 -2 -8 18 -16 14 -20 14 -20 2z"/>
<path d="M787 2659 c-9 -6 -22 -7 -27 -4 -11 7 -57 -81 -48 -91 4 -3 18 2 32
12 25 16 26 18 10 35 -18 20 -9 25 16 9 11 -7 18 -3 27 13 12 22 12 22 13 -6
0 -25 3 -27 28 -21 l27 6 -23 -19 c-18 -14 -20 -21 -10 -31 16 -16 2 -28 -17
-12 -8 7 -15 8 -15 3 0 -5 -6 -18 -14 -29 -14 -18 -14 -18 -12 9 3 23 -1 27
-20 27 -28 0 -29 -3 -8 -36 14 -21 22 -24 53 -18 45 8 60 22 70 66 9 38 1 55
-39 81 -18 11 -30 13 -43 6z"/>
<path d="M2133 2552 c-17 -11 -43 -76 -43 -106 0 -14 -9 -56 -21 -93 -11 -38
-31 -101 -43 -141 -12 -40 -19 -75 -14 -78 4 -3 8 3 8 13 0 15 2 16 10 3 5 -8
7 -49 4 -90 -9 -121 14 -61 26 71 13 135 22 175 52 219 49 72 117 95 184 64
61 -28 111 -81 177 -188 63 -102 119 -168 172 -201 17 -11 49 -34 71 -52 23
-19 48 -32 55 -31 8 2 13 -2 12 -9 -3 -16 34 -36 49 -27 6 4 8 3 4 -4 -8 -14
32 -42 61 -42 13 0 23 -4 23 -10 0 -5 6 -10 13 -10 17 1 -32 40 -50 40 -8 0
-11 5 -7 12 5 7 2 10 -7 6 -8 -2 -22 4 -31 14 -17 17 -17 18 16 18 18 0 49 3
67 8 30 6 24 8 -41 14 -100 10 -110 12 -104 17 5 5 -73 53 -79 49 -2 -2 -16
12 -31 30 -29 34 -52 43 -42 16 5 -14 4 -15 -9 -4 -9 8 -12 17 -7 24 11 14
-61 140 -73 129 -4 -5 -5 -3 -1 4 10 17 -39 140 -80 200 -36 52 -113 113 -143
113 -10 0 -1 -14 24 -40 21 -22 34 -40 27 -40 -7 0 -30 18 -53 41 -29 29 -46
39 -60 35 -10 -3 -28 -9 -39 -12 -11 -4 -20 -2 -20 4 0 5 12 13 27 17 21 5 24
8 12 16 -17 11 -79 12 -96 1z m37 -46 c0 5 4 3 8 -4 5 -6 26 -13 48 -15 46 -3
94 -31 69 -40 -8 -4 -15 -3 -15 1 0 16 -64 10 -101 -9 -21 -10 -39 -16 -39
-12 0 4 -7 -2 -15 -13 -14 -18 -15 -17 -10 15 3 19 11 43 18 55 6 11 10 25 9
30 -2 5 4 4 12 -4 9 -7 16 -9 16 -4z m234 -72 c9 -3 16 -15 16 -25 0 -11 5
-16 14 -13 7 3 16 -3 19 -13 4 -10 11 -25 16 -33 17 -26 51 -106 51 -118 0
-20 -16 -13 -30 13 -7 14 -17 25 -21 25 -5 0 -6 6 -4 13 3 6 -4 26 -15 42 -11
17 -20 25 -20 20 0 -6 6 -17 13 -24 10 -11 8 -11 -10 0 -12 7 -20 15 -18 18 3
2 -4 11 -15 18 -11 8 -17 19 -14 25 4 7 2 8 -4 4 -6 -4 -20 2 -32 14 l-20 20
21 0 c11 0 17 5 14 10 -7 11 15 13 39 4z"/>
<path d="M2602 2448 c-7 -7 -12 -18 -12 -26 0 -7 -4 -11 -9 -8 -15 10 -22 -25
-9 -42 11 -13 11 -14 0 -8 -19 11 3 -30 31 -58 11 -12 17 -15 13 -8 -8 14 10
17 19 2 3 -5 13 -6 23 -3 26 10 72 65 64 77 -8 12 -9 18 -11 45 0 11 -9 22
-18 25 -44 13 -80 15 -91 4z m38 -23 c0 -21 27 -19 39 3 10 16 10 16 11 0 0
-9 -4 -20 -10 -23 -16 -10 -12 -21 13 -33 22 -10 21 -11 -6 -11 -25 -1 -27 -4
-21 -28 l6 -28 -20 24 c-13 16 -21 20 -26 12 -12 -19 -28 -12 -21 10 5 14 1
25 -12 34 -17 14 -17 14 5 15 15 0 22 6 22 20 0 11 5 20 10 20 6 0 10 -7 10
-15z"/>
<path d="M630 2423 c-11 -13 -18 -23 -15 -23 2 0 1 -10 -4 -23 -7 -17 -4 -29
13 -48 35 -44 60 -52 89 -29 14 11 32 20 41 20 9 0 16 5 16 11 0 5 -4 8 -9 4
-6 -3 -6 7 -1 27 6 17 9 32 7 33 -1 1 -15 -6 -30 -15 -17 -11 -24 -20 -18 -24
6 -4 11 -14 11 -23 0 -13 -2 -13 -16 -2 -14 11 -18 10 -30 -6 -14 -18 -14 -18
-14 3 0 17 -6 22 -27 23 -28 0 -28 1 -5 11 24 12 28 23 12 33 -5 3 -10 11 -10
17 0 6 6 5 16 -3 14 -11 18 -11 29 4 17 23 28 22 20 -3 -5 -16 -2 -20 19 -20
30 0 34 21 10 41 -27 23 -81 19 -104 -8z"/>
<path d="M3011 2430 c-13 -11 -20 -20 -16 -20 5 0 0 -9 -10 -20 -10 -11 -14
-20 -9 -20 6 0 10 -10 11 -22 2 -27 40 -57 65 -53 10 2 18 0 18 -6 0 -5 9 -4
20 3 10 7 17 14 14 17 -2 2 8 13 23 23 17 10 22 18 13 18 -11 0 -12 2 -2 8 10
7 9 15 -3 40 -19 37 -20 38 -65 45 -26 5 -41 1 -59 -13z m55 -29 c2 -2 10 2
19 9 19 15 34 5 17 -12 -16 -16 -15 -28 3 -28 8 0 15 -4 15 -10 0 -5 -10 -10
-21 -10 -16 0 -20 -5 -16 -20 6 -25 -2 -26 -19 -2 -10 14 -15 15 -25 5 -7 -7
-17 -13 -23 -13 -6 0 -5 5 2 12 17 17 15 38 -3 38 -8 0 -15 5 -15 10 0 6 9 10
20 10 15 0 20 7 20 28 1 25 1 26 12 7 6 -11 12 -22 14 -24z"/>
<path d="M2819 2333 c-14 -9 -31 -24 -37 -34 -24 -38 26 -109 77 -109 32 0 74
43 76 78 1 18 -2 32 -7 32 -5 0 -6 6 -2 13 4 6 4 9 -1 5 -4 -4 -19 2 -33 12
-30 24 -39 24 -73 3z m66 -23 c16 14 17 13 11 -8 -6 -17 -3 -27 11 -37 17 -14
17 -14 -4 -15 -17 0 -23 -6 -23 -22 -1 -22 -1 -23 -15 -4 -12 16 -18 17 -27 8
-19 -19 -30 -14 -18 7 13 26 13 31 -5 31 -8 0 -15 5 -15 10 0 6 9 10 20 10 14
0 20 7 20 22 0 21 0 21 14 3 12 -17 16 -18 31 -5z"/>
<path d="M1285 2328 c-22 -6 -49 -17 -60 -24 -19 -14 -19 -14 3 -14 12 0 22
-4 22 -10 0 -5 -22 -10 -49 -10 -58 0 -89 -9 -71 -20 7 -5 0 -7 -16 -7 -16 1
-54 -2 -84 -6 -35 -4 -48 -3 -35 3 16 7 17 9 3 9 -9 1 -38 -9 -65 -21 -26 -12
-59 -22 -73 -23 -64 -5 -100 -54 -100 -134 0 -63 18 -107 58 -145 26 -25 34
-27 47 -16 13 11 14 10 9 -3 -4 -11 5 -21 28 -33 32 -17 33 -17 18 2 -8 10
-18 21 -22 24 -3 3 -30 55 -59 115 -29 61 -55 113 -57 118 -2 4 1 7 8 7 6 0
17 -15 25 -32 12 -28 14 -29 15 -10 0 12 5 22 10 22 6 0 10 -22 10 -49 0 -43
5 -55 45 -104 25 -30 67 -71 92 -91 25 -20 43 -36 39 -36 -12 0 -59 32 -96 64
l-34 31 26 -35 c31 -42 82 -74 105 -66 14 6 8 15 -30 54 -55 56 -86 121 -87
178 0 47 19 75 65 99 l30 15 -42 0 c-38 0 -44 -4 -60 -32 -9 -18 -16 -36 -15
-41 1 -4 -7 -2 -18 5 -11 7 -20 19 -20 27 0 11 -3 11 -17 0 -9 -8 -14 -9 -10
-2 4 6 1 18 -8 26 -13 13 -9 16 33 23 26 4 54 9 62 11 8 2 62 5 120 6 70 2
118 8 145 19 l40 17 -35 2 c-25 1 -15 5 33 12 37 5 67 13 67 18 0 5 -4 9 -8 9
-5 0 -9 7 -9 15 0 8 2 13 5 10 5 -5 62 23 62 30 0 3 -1 5 -2 4 -2 -1 -21 -6
-43 -11z m-462 -335 c-4 -11 -3 -14 5 -9 7 4 13 2 13 -3 1 -6 2 -16 3 -21 0
-6 7 -14 14 -19 11 -7 11 -9 -2 -14 -8 -3 -17 -3 -20 1 -2 4 -13 24 -25 45
-20 36 -20 37 -1 37 14 0 18 -5 13 -17z"/>
<path d="M2230 2320 c0 -6 -4 -9 -9 -5 -12 7 -36 -34 -32 -54 1 -8 -2 -10 -10
-5 -7 4 -10 3 -6 -3 3 -5 0 -21 -8 -36 -7 -14 -11 -27 -9 -29 2 -3 0 -19 -5
-36 -5 -17 -6 -34 -1 -37 5 -3 11 5 15 17 20 73 60 158 77 164 25 7 57 -15
101 -68 28 -35 76 -116 82 -138 1 -3 12 -27 24 -53 70 -151 174 -231 319 -244
64 -6 97 -23 44 -23 -54 0 -136 20 -189 46 -84 41 -137 103 -203 240 -38 81
-73 137 -102 168 -46 48 -82 59 -91 29 -3 -10 -17 -48 -31 -85 -18 -47 -22
-69 -14 -74 7 -4 8 -3 4 4 -4 7 -3 12 1 12 10 0 43 69 43 88 0 6 8 16 18 21
15 8 26 4 51 -20 18 -16 34 -37 36 -47 1 -9 7 -16 13 -15 5 1 16 -4 22 -12 7
-8 9 -15 5 -15 -3 0 3 -16 15 -35 12 -19 18 -40 14 -46 -4 -8 -3 -9 4 -5 7 4
12 4 13 -1 0 -4 2 -24 4 -43 3 -31 3 -33 -7 -12 -6 12 -15 22 -20 22 -17 0
-24 2 -60 21 -50 25 -112 25 -138 -1 -11 -11 -26 -20 -32 -20 -10 0 -10 -2 -1
-8 10 -6 10 -12 -1 -28 -14 -18 -15 -18 -25 6 -5 14 -10 19 -10 11 -1 -8 7
-23 16 -33 15 -17 15 -20 0 -35 -15 -15 -16 -14 -11 8 4 24 4 24 -5 2 -6 -13
-13 -64 -17 -115 -3 -51 -8 -95 -10 -97 -2 -2 -4 43 -5 100 -1 78 -3 97 -10
74 -5 -16 -10 -46 -11 -65 -1 -19 -7 -38 -12 -42 -8 -5 -7 -8 1 -8 6 0 10 -11
8 -25 -1 -14 1 -28 5 -30 4 -3 6 -22 5 -43 -3 -38 -2 -39 21 -28 22 10 24 16
24 96 1 60 7 101 21 140 11 30 21 61 21 68 1 7 17 27 36 43 31 27 40 30 74 25
50 -8 105 -36 146 -74 17 -16 34 -27 38 -23 4 3 4 1 1 -5 -9 -16 114 -134 137
-130 33 5 146 -23 186 -45 31 -18 41 -19 59 -9 13 6 26 8 29 4 4 -4 1 -9 -5
-11 -7 -3 -13 -8 -13 -12 0 -11 69 -45 77 -38 3 4 -1 7 -9 7 -9 0 -21 13 -26
29 -11 30 -44 56 -57 43 -4 -4 -5 8 -2 26 3 17 1 32 -4 32 -6 0 -7 4 -4 10 4
6 -1 7 -11 3 -13 -5 -15 -3 -9 7 6 10 4 11 -6 4 -17 -11 -109 -12 -109 -2 0 5
-5 8 -11 8 -39 0 -165 83 -153 101 3 5 1 9 -5 9 -6 0 -18 16 -27 35 -9 19 -20
35 -25 35 -5 0 -8 3 -7 8 0 4 -2 16 -6 27 -4 11 -12 31 -17 45 -5 14 -14 39
-20 55 -7 17 -13 34 -13 38 -1 4 -6 11 -11 15 -6 4 -28 30 -49 59 -22 29 -47
55 -55 59 -33 13 -71 15 -71 4z"/>
<path d="M1455 2295 c-5 -2 -23 -6 -39 -10 -57 -12 -19 -12 44 0 36 7 52 13
35 13 -16 0 -34 -1 -40 -3z"/>
<path d="M505 2250 c-4 -6 -10 -8 -15 -5 -18 11 -50 -16 -70 -57 -11 -22 -17
-39 -14 -36 7 8 94 -79 94 -95 0 -7 -5 -18 -11 -24 -6 -6 -11 -27 -12 -47 -1
-28 -4 -33 -14 -24 -10 8 -12 7 -7 -5 3 -8 12 -18 20 -21 8 -3 14 -16 14 -28
0 -19 2 -20 11 -8 7 10 9 11 7 2 -6 -23 -22 -17 -46 19 -13 19 -32 44 -43 57
-17 20 -21 21 -34 8 -23 -23 -18 -59 16 -106 17 -23 25 -39 17 -36 -7 4 -4 1
6 -6 39 -26 72 -60 53 -54 -10 3 -15 2 -12 -4 3 -5 -3 -14 -14 -20 -12 -6 -26
-20 -32 -31 -9 -17 -8 -20 2 -13 8 4 3 -5 -10 -21 l-23 -30 39 -6 c21 -3 32
-7 25 -8 -26 -2 -5 -25 26 -28 33 -4 72 11 72 28 0 6 -4 8 -9 5 -5 -3 -15 1
-22 10 -12 14 -14 13 -21 -6 -4 -12 -12 -19 -17 -15 -6 3 -8 12 -4 20 4 11 -2
15 -23 15 l-29 0 24 19 c16 12 20 21 12 25 -20 13 -12 27 8 16 16 -8 22 -6 30
7 9 16 10 15 11 -6 0 -20 4 -22 25 -17 30 8 34 -10 4 -19 -16 -5 -18 -10 -8
-21 6 -8 20 -14 31 -14 15 0 18 5 15 28 -3 15 -8 34 -11 43 -6 14 0 15 46 7
29 -6 66 -16 81 -24 17 -8 25 -9 21 -2 -5 8 7 9 47 4 81 -11 130 -12 136 -2 3
4 -13 7 -36 4 -22 -2 -41 -1 -41 3 0 3 -35 12 -77 18 -80 12 -220 49 -238 63
-64 48 -137 150 -116 163 6 3 21 -16 35 -43 34 -68 83 -107 163 -132 88 -27
290 -47 307 -30 8 9 5 10 -16 5 -32 -8 -158 11 -208 32 -91 37 -160 115 -160
181 0 25 13 46 57 95 32 34 69 67 84 74 15 6 30 16 34 23 6 9 3 9 -12 1 -11
-6 -23 -8 -26 -5 -3 3 -19 -2 -36 -11 -17 -8 -31 -14 -32 -13 0 2 -2 14 -3 26
-3 28 -62 87 -71 72z m38 -60 c21 -1 21 -1 3 -15 -17 -13 -17 -17 -5 -31 13
-16 12 -17 -10 -11 -17 4 -29 1 -37 -11 -12 -16 -13 -15 -14 6 0 16 -6 22 -22
22 -22 1 -23 1 -4 15 16 12 17 18 8 27 -19 19 -14 30 7 18 26 -14 28 -13 36
13 8 21 8 21 12 -5 3 -21 10 -28 26 -28z"/>
<path d="M1233 2230 c-75 -16 -85 -29 -22 -30 31 0 58 3 62 6 3 4 51 7 106 8
55 0 104 6 110 11 13 13 -197 17 -256 5z"/>
<path d="M195 2203 c-26 -7 -66 -39 -58 -47 3 -3 1 -6 -7 -6 -9 0 -10 -3 -1
-14 8 -10 8 -15 1 -18 -16 -5 43 -71 68 -75 12 -1 22 2 22 7 0 6 3 9 8 8 15
-4 50 13 56 28 4 10 1 13 -7 9 -6 -4 -1 4 13 16 16 14 19 20 8 16 -11 -4 -15
-2 -12 6 4 12 -52 78 -65 76 -3 -1 -15 -4 -26 -6z m35 -33 c0 -14 7 -20 23
-20 22 -1 22 -1 2 -16 -16 -12 -18 -18 -7 -34 18 -29 15 -35 -8 -15 -22 20
-22 20 -38 -10 -11 -19 -11 -18 -12 7 0 21 -4 25 -20 21 -23 -6 -27 12 -5 21
13 4 14 10 5 26 -12 22 -1 27 18 8 10 -10 14 -8 18 10 8 27 24 29 24 2z"/>
<path d="M731 2181 c-26 -14 -30 -19 -17 -24 16 -6 23 -47 8 -47 -5 0 -8 -20
-8 -43 1 -28 -3 -44 -11 -44 -7 0 -10 3 -8 7 2 3 -7 18 -21 33 -28 30 -30 37
-10 37 8 0 18 5 22 12 5 7 2 9 -7 4 -8 -4 -5 0 5 8 23 18 16 31 -11 22 -57
-18 -76 -71 -48 -131 l14 -30 -6 43 c-7 51 12 58 20 7 12 -75 131 -202 215
-229 26 -8 76 -18 112 -21 36 -3 76 -8 90 -11 28 -4 -82 50 -144 71 -41 14
-61 11 -50 -7 4 -5 -4 -4 -17 3 -50 26 -69 42 -62 52 4 6 10 5 17 -4 14 -18
56 -42 56 -32 -1 5 -20 22 -44 40 -81 59 -108 172 -63 262 24 49 23 50 -32 22z"/>
<path d="M1053 2177 c-38 -9 -60 -27 -32 -27 5 0 7 -4 4 -10 -3 -5 -1 -10 6
-10 8 0 7 -5 -2 -17 -12 -15 -12 -16 1 -8 13 8 13 6 1 -8 -22 -28 -9 -128 23
-169 14 -19 26 -40 26 -46 0 -7 4 -12 10 -12 5 0 14 -8 19 -18 7 -14 6 -19 -4
-19 -8 0 -13 4 -12 8 1 5 -9 19 -23 31 -14 13 -19 19 -10 13 13 -9 13 -8 1 7
-7 10 -17 16 -21 13 -9 -6 -50 48 -68 88 -24 55 -10 137 23 137 17 0 20 16 6
24 -5 4 -23 -6 -40 -20 -27 -22 -31 -33 -31 -72 0 -98 122 -236 232 -263 47
-11 50 -13 28 -20 -21 -7 -19 -8 12 -6 20 1 40 -2 44 -6 4 -4 16 -7 27 -7 19
0 20 1 2 20 -10 11 -46 36 -81 55 -63 35 -115 89 -134 139 -22 58 -9 144 29
189 19 23 14 25 -36 14z"/>
<path d="M1111 2171 c-23 -23 -41 -81 -41 -134 0 -65 52 -141 132 -190 45 -28
45 -20 1 26 -59 59 -94 138 -87 196 9 79 13 90 42 105 l27 15 -27 1 c-16 0
-37 -9 -47 -19z"/>
<path d="M1283 2183 c9 -2 17 -9 17 -14 0 -6 -10 -7 -22 -4 -13 4 -31 9 -40
11 -9 3 -32 -2 -51 -10 -57 -23 -61 -76 -11 -135 29 -35 44 -39 44 -13 0 35
65 75 240 148 l55 24 -125 -1 c-69 -1 -117 -3 -107 -6z m73 -42 c-4 -5 -14 -7
-23 -4 -11 5 -14 3 -8 -6 6 -10 3 -11 -13 -2 -16 9 -19 7 -18 -6 0 -10 -8 -19
-18 -21 -11 -2 -25 -9 -32 -16 -40 -35 -40 -35 -57 -6 -15 25 -15 28 1 42 22
19 60 29 68 17 3 -5 11 -9 17 -9 8 0 8 3 -1 9 -9 5 -2 8 19 9 17 0 37 6 42 11
13 13 32 -2 23 -18z"/>
<path d="M555 2042 c-30 -46 -30 -80 1 -126 17 -27 122 -80 193 -98 37 -9 41
-13 25 -19 -11 -5 -3 -6 20 -2 28 4 37 2 32 -6 -5 -7 -1 -9 9 -5 12 5 5 13
-29 33 -64 37 -156 120 -150 136 3 7 1 16 -5 20 -7 4 -8 0 -4 -11 4 -10 2 -15
-4 -11 -9 5 -23 36 -50 107 -10 24 -10 24 -38 -18z m32 -46 c-3 -8 3 -22 14
-32 11 -10 17 -24 15 -31 -3 -7 0 -15 6 -19 7 -5 8 -2 4 7 -4 8 0 5 8 -5 35
-44 13 -48 -32 -7 -30 28 -43 76 -25 94 11 11 15 8 10 -7z"/>
<path d="M1130 2039 c0 -20 56 -135 69 -143 7 -5 11 4 11 23 0 20 -13 48 -36
78 -46 61 -44 59 -44 42z"/>
<path d="M2764 2008 c-4 -7 -3 -8 4 -4 7 4 12 3 12 -2 0 -18 57 -33 116 -30
l59 3 -75 13 c-41 7 -83 17 -92 22 -11 6 -19 6 -24 -2z"/>
<path d="M2228 1980 c-38 -23 -89 -182 -87 -275 0 -29 1 -29 10 -7 5 13 22 29
39 35 16 6 30 15 30 20 0 4 5 5 12 1 6 -4 8 -3 5 4 -8 12 -25 11 -46 -2 -10
-7 -12 -6 -6 4 6 10 4 12 -8 7 -13 -5 -17 -1 -17 17 0 43 12 86 23 79 6 -3 7
-1 3 6 -7 11 13 52 39 77 6 6 23 10 38 8 17 -2 25 1 21 8 -4 7 0 6 13 -1 11
-6 23 -8 26 -4 4 3 23 -9 44 -26 59 -49 61 -51 73 -51 5 0 10 -4 10 -10 0 -18
55 -88 73 -93 11 -3 15 -11 11 -21 -3 -9 -2 -16 3 -16 5 0 24 -13 43 -30 38
-34 109 -51 187 -45 29 2 55 0 58 -6 4 -5 11 -9 16 -9 6 0 7 5 3 12 -4 7 -3 8
5 4 6 -4 9 -11 6 -16 -3 -5 4 -8 15 -7 11 1 20 5 20 9 0 17 -61 36 -140 42
-88 7 -151 31 -193 71 -12 12 -53 56 -91 99 -92 104 -183 148 -238 116z"/>
<path d="M2753 1906 c27 -25 55 -46 63 -46 8 0 13 -6 12 -12 -2 -7 4 -14 12
-14 8 -1 17 -3 20 -4 3 -1 19 -3 35 -5 l30 -4 -35 15 c-19 9 -47 25 -62 36
-16 10 -28 16 -28 11 0 -4 -6 -1 -13 7 -7 8 -28 25 -47 38 -29 20 -27 16 13
-22z"/>
<path d="M152 1833 c-6 -3 -10 -9 -6 -14 3 -5 -3 -9 -13 -9 -14 0 -14 -3 6
-16 19 -14 25 -14 32 -3 11 17 11 21 1 35 -4 6 -13 9 -20 7z"/>
<path d="M184 1827 c3 -10 6 -27 6 -38 0 -13 7 -19 23 -19 21 -1 21 -1 4 -14
-16 -12 -16 -17 -5 -35 18 -30 26 -26 34 15 6 33 3 40 -31 73 -23 22 -35 29
-31 18z"/>
<path d="M1870 1761 c0 -39 3 -71 7 -71 4 0 19 12 35 27 37 36 49 21 13 -17
-16 -16 -27 -32 -24 -34 2 -2 35 -6 73 -8 l68 -4 -28 23 c-16 13 -34 21 -41
19 -12 -5 -12 11 1 34 5 8 6 12 1 8 -4 -4 -14 0 -22 8 -8 8 -19 12 -24 8 -14
-8 -39 15 -32 31 3 8 -2 22 -11 30 -15 15 -16 10 -16 -54z"/>
<path d="M1812 1789 c-13 -16 -28 -27 -33 -23 -11 6 -32 -44 -25 -62 3 -9 -1
-11 -11 -7 -10 4 -14 2 -10 -4 3 -5 -2 -9 -11 -9 -9 1 -18 -3 -20 -9 -3 -11
82 -19 106 -10 12 4 10 11 -13 35 -36 38 -24 53 13 17 16 -15 31 -24 35 -20
10 9 9 123 0 122 -5 0 -18 -13 -31 -30z"/>
<path d="M1079 1795 c18 -8 41 -15 50 -14 22 1 -39 28 -64 28 -14 0 -9 -4 14
-14z"/>
<path d="M96 1767 c1 -39 12 -68 33 -85 14 -11 14 -11 -1 -6 -10 3 -18 1 -18
-5 0 -6 -7 -8 -15 -5 -8 4 -15 1 -15 -5 0 -7 27 -11 75 -11 43 0 75 4 75 10 0
6 -5 10 -11 10 -5 0 -7 5 -4 10 8 13 -13 40 -31 40 -8 0 -14 -7 -14 -15 0 -8
-4 -15 -10 -15 -5 0 -10 9 -10 20 0 14 -7 20 -22 20 -22 1 -22 1 -4 15 19 14
19 15 1 35 -25 28 -30 25 -29 -13z"/>
<path d="M2620 1746 c30 -17 143 -40 161 -34 21 7 -110 48 -150 48 l-36 -1 25
-13z"/>
<path d="M910 1718 c0 -9 -4 -9 115 -14 50 -2 113 -8 140 -13 28 -6 84 -10
125 -9 65 0 69 1 35 8 -40 8 -128 18 -175 20 -23 1 -24 2 -5 11 16 7 13 8 -10
3 -30 -6 -116 -6 -187 0 -21 2 -38 -1 -38 -6z"/>
<path d="M2203 1720 c-30 -12 -45 -44 -41 -88 l3 -37 265 -3 c146 -2 290 0
320 4 l55 7 -50 9 c-27 4 -68 6 -90 4 -22 -2 -31 -1 -20 2 13 3 2 9 -35 17
-37 9 -60 10 -70 3 -13 -8 -12 -9 2 -4 18 5 45 -19 30 -28 -5 -3 -12 -3 -15 1
-6 6 -188 14 -285 13 -52 -1 -87 13 -76 31 3 5 -3 9 -13 10 -11 0 -6 6 15 15
20 9 30 19 26 26 -5 7 -3 8 7 2 8 -4 51 -9 96 -10 46 -2 92 -5 103 -9 11 -3
20 -2 20 3 0 13 -61 20 -143 17 -65 -3 -81 8 -27 18 16 3 11 5 -15 5 -22 0
-50 -3 -62 -8z"/>
<path d="M2237 1673 c-3 -5 32 -10 77 -11 44 -2 96 -5 114 -6 17 -1 32 1 32 5
0 16 -214 27 -223 12z"/>
<path d="M2550 1671 c19 -4 49 -12 65 -16 22 -6 27 -5 19 4 -6 6 -35 14 -65
16 -44 4 -47 3 -19 -4z"/>
<path d="M54 1649 c-3 -6 -2 -15 3 -20 14 -14 72 -29 78 -19 3 4 14 6 25 3 11
-3 20 -1 20 4 0 5 15 7 33 5 17 -3 29 -1 24 3 -4 5 -46 7 -93 6 -74 -1 -86 1
-81 14 7 17 1 20 -9 4z"/>
<path d="M1681 1641 c13 -10 34 -21 47 -25 15 -5 22 -15 22 -34 l0 -26 35 34
c19 19 35 38 35 42 0 4 -29 8 -65 8 -37 0 -65 4 -65 10 0 6 -7 10 -16 10 -13
0 -11 -4 7 -19z"/>
<path d="M3370 1650 c0 -5 -3 -9 -7 -9 -31 5 -235 -3 -229 -8 17 -17 191 -23
270 -9 36 6 47 6 42 -3 -5 -8 9 -11 45 -11 85 0 47 -13 -59 -20 l-97 -7 106
-1 c84 -2 108 1 112 12 7 17 -28 51 -42 41 -6 -3 -11 -1 -11 5 0 7 -8 9 -19 5
-11 -3 -22 -2 -25 3 -7 12 -86 15 -86 2z"/>
<path d="M2895 1640 c-4 -6 -10 -8 -14 -6 -4 3 -13 1 -20 -4 -8 -4 -27 -4 -42
0 -17 5 -29 5 -29 -1 0 -5 1 -9 3 -9 1 0 40 -7 87 -15 47 -8 105 -14 130 -13
l45 1 -55 7 -55 7 52 1 c28 1 63 -2 78 -8 17 -7 24 -7 20 0 -3 6 -2 10 4 10 5
0 11 -3 13 -7 2 -5 28 -5 58 -2 l55 6 -55 3 c-137 8 -230 19 -251 31 -12 6
-20 5 -24 -1z"/>
<path d="M256 1632 c-3 -5 23 -6 57 -4 87 5 94 10 15 11 -37 1 -69 -3 -72 -7z"/>
<path d="M1900 1627 c0 -8 11 -24 25 -37 14 -13 25 -28 25 -34 0 -5 -16 5 -35
24 -19 18 -37 31 -41 28 -3 -4 -7 -77 -9 -165 -2 -96 -9 -185 -19 -228 -9 -38
-15 -88 -15 -110 l1 -40 10 38 c11 42 24 48 31 15 2 -13 5 2 6 32 0 31 8 82
16 113 8 32 15 67 15 77 0 11 7 20 15 20 12 0 12 -6 0 -47 -8 -27 -17 -88 -19
-138 l-5 -90 14 55 13 55 -3 -74 c-2 -40 -6 -76 -9 -79 -3 -3 -6 1 -7 9 -2 35
-17 -41 -16 -86 l0 -50 7 55 c6 52 7 53 9 15 2 -22 6 -51 11 -65 l7 -25 6 25
c4 14 8 115 10 225 3 113 8 198 13 195 9 -5 8 -309 -1 -400 l-4 -45 16 35 c16
36 20 89 11 173 -6 55 2 65 27 37 13 -15 31 -20 66 -20 77 0 127 -29 150 -86
15 -38 13 -125 -3 -136 -11 -6 -10 -8 0 -8 19 0 32 44 32 110 0 48 -5 64 -25
88 -36 43 -84 62 -154 62 -39 0 -61 4 -61 11 0 8 21 10 69 7 159 -12 222 -101
177 -251 -8 -26 -10 -47 -5 -47 8 0 13 15 10 33 0 4 3 7 8 7 6 0 9 8 9 18 -1
19 7 61 17 93 5 16 4 19 -5 14 -9 -5 -11 -4 -6 4 17 26 -48 131 -81 131 -7 0
-13 4 -13 9 0 6 -8 10 -17 9 -10 0 -44 3 -77 6 -38 5 -63 3 -72 -5 -8 -6 -14
-8 -14 -4 0 4 -7 2 -15 -5 -13 -11 -14 -8 -7 21 4 19 7 57 7 85 0 56 -18 82
-62 90 -35 7 -45 14 -40 28 2 6 1 20 -3 31 -4 11 -2 39 5 62 7 23 11 44 9 46
-3 2 7 3 21 2 27 -3 46 19 37 44 -3 8 0 11 7 7 6 -4 11 -3 11 2 0 4 15 16 33
25 l32 16 -72 0 c-54 1 -73 -2 -73 -12z"/>
<path d="M2110 1615 c-7 -8 -17 -12 -23 -8 -6 3 -7 1 -3 -6 4 -6 11 -9 16 -6
13 8 42 -37 31 -48 -6 -6 -4 -15 4 -24 19 -18 105 -56 112 -49 3 3 -2 8 -11
12 -9 3 -13 10 -10 16 3 5 -2 8 -11 6 -10 -2 -20 2 -22 8 -4 12 53 25 63 15 3
-3 31 -6 62 -5 50 1 51 0 10 -3 -46 -4 -67 -21 -30 -24 57 -5 100 -3 95 4 -2
4 28 6 68 5 50 -2 74 1 76 9 4 12 35 12 173 -2 26 -3 39 -1 32 3 -8 6 -2 9 17
9 25 0 28 -3 20 -14 -9 -9 -8 -13 0 -13 6 0 14 7 18 15 4 12 18 16 52 15 25
-1 84 1 130 4 73 5 82 4 71 -9 -7 -8 -9 -16 -4 -17 5 -1 -20 -5 -56 -8 -56 -6
-50 -7 48 -7 91 -1 112 2 108 13 -9 23 15 28 136 29 116 0 135 -6 75 -25 -24
-7 -6 -8 68 -4 55 3 108 8 118 11 16 4 15 6 -5 24 -13 12 -17 18 -10 14 6 -3
12 -1 12 6 0 8 -54 10 -217 5 -386 -11 -786 -25 -860 -32 -44 -3 -73 -2 -73 4
0 9 -93 22 -183 24 -44 1 -48 4 -55 31 -9 36 -24 44 -42 22z m1008 -88 c2 -10
-3 -17 -12 -17 -18 0 -29 16 -21 31 9 14 29 6 33 -14z"/>
<path d="M1797 1582 c-27 -28 -27 -53 0 -30 8 6 13 7 12 2 -1 -5 1 -29 5 -54
11 -75 14 -212 4 -245 -4 -16 -11 -50 -14 -75 -3 -25 -7 -53 -10 -62 -3 -10
-1 -18 4 -18 10 0 12 6 36 170 16 103 13 340 -3 340 -4 0 -19 -13 -34 -28z"/>
<path d="M1314 1591 c3 -4 -47 -11 -112 -14 -64 -4 -130 -11 -147 -17 l-30
-10 35 5 c19 2 79 5 132 6 106 2 148 7 148 19 0 4 -7 11 -16 14 -8 3 -13 2
-10 -3z"/>
<path d="M112 1573 c-16 -12 -16 -14 2 -28 13 -10 39 -13 86 -12 52 2 65 0 56
-9 -7 -6 -28 -10 -47 -8 -25 3 -37 -1 -45 -14 -11 -17 -8 -17 60 -4 39 8 181
18 318 22 142 5 254 12 265 19 24 14 -7 15 -394 11 -217 -1 -303 1 -303 9 0 8
72 11 243 12 133 0 238 2 232 4 -5 2 -110 5 -233 7 -174 3 -227 1 -240 -9z"/>
<path d="M1425 1578 c-22 -5 -48 -7 -58 -4 -10 2 -14 0 -11 -6 4 -6 37 -9 85
-6 44 3 79 1 79 -4 0 -4 -3 -8 -7 -8 -5 0 -10 -55 -12 -122 -2 -84 -8 -129
-18 -144 -23 -36 -70 -49 -180 -49 -116 0 -103 -13 22 -21 80 -6 155 8 166 31
2 6 10 9 16 9 7 -1 11 2 8 6 -3 5 -2 15 1 24 6 15 8 15 19 -1 12 -15 13 -15
19 4 7 23 0 180 -9 205 -4 9 -2 19 4 22 12 8 19 -29 25 -134 5 -87 -11 -145
-65 -235 -43 -71 -96 -105 -179 -112 -35 -3 -57 -10 -53 -15 7 -13 138 -3 155
11 7 6 28 21 47 34 22 14 38 34 43 55 5 18 13 30 19 27 5 -4 9 -3 7 2 -1 4 2
23 6 42 6 25 11 30 17 20 5 -8 9 -12 10 -9 0 3 2 14 3 25 2 11 9 47 16 80 7
32 10 81 7 107 -4 28 -2 48 3 48 14 0 17 -58 7 -157 -3 -30 -1 -50 4 -47 5 3
9 18 9 35 0 16 4 29 8 29 5 0 8 29 7 65 -2 62 -18 101 -36 89 -5 -3 -14 6 -21
20 -6 14 -15 26 -20 26 -5 0 -6 4 -3 10 3 5 0 8 -7 5 -8 -3 -18 7 -26 23 -14
32 -36 36 -107 20z"/>
<path d="M2776 1583 c-4 -5 -94 -11 -199 -14 l-192 -5 170 -1 c98 -1 204 4
250 12 76 12 78 13 29 14 -28 0 -54 -2 -58 -6z"/>
<path d="M2943 1573 c32 -2 81 -2 110 0 29 2 3 3 -58 3 -60 0 -84 -1 -52 -3z"/>
<path d="M1130 1531 c0 -5 -9 -7 -19 -4 -11 3 -28 0 -38 -6 -14 -9 -3 -11 52
-7 39 3 123 8 188 12 139 8 141 7 152 -94 8 -75 -6 -119 -41 -128 -13 -4 -21
-11 -17 -17 4 -6 0 -8 -10 -4 -9 3 -17 1 -19 -4 -2 -5 -34 -10 -71 -11 -97 -2
-94 -18 3 -18 93 0 148 21 168 65 7 14 12 69 12 125 l0 100 -180 0 c-101 0
-180 -4 -180 -9z"/>
<path d="M2102 1506 c1 -13 5 -23 8 -21 4 2 20 -4 37 -14 16 -10 45 -22 64
-26 19 -4 39 -11 44 -15 19 -14 45 -19 45 -10 0 6 -5 10 -10 10 -17 0 -158 69
-174 86 -14 14 -16 13 -14 -10z"/>
<path d="M368 1503 c17 -2 47 -2 65 0 17 2 3 4 -33 4 -36 0 -50 -2 -32 -4z"/>
<path d="M620 1500 c-63 -4 -185 -11 -270 -15 -85 -4 -162 -11 -170 -16 -14
-9 102 -6 270 5 30 2 107 7 170 11 63 4 131 11 150 15 l35 8 -35 -1 c-19 0
-87 -3 -150 -7z"/>
<path d="M3430 1489 c-19 -4 -30 -8 -25 -9 22 -7 135 -5 135 2 0 4 8 5 18 2
15 -5 15 -4 1 5 -16 11 -70 11 -129 0z"/>
<path d="M2971 1465 c10 -9 127 -13 140 -4 9 5 -16 9 -65 9 -44 0 -77 -2 -75
-5z"/>
<path d="M450 1430 c0 -6 -8 -9 -19 -5 -10 3 -29 1 -42 -5 -18 -7 1 -9 74 -7
54 1 101 5 103 9 3 5 -12 8 -33 8 -21 0 -48 3 -60 6 -15 4 -23 2 -23 -6z"/>
<path d="M1689 1419 c-6 -12 -13 -60 -15 -108 -2 -47 -7 -99 -10 -116 -3 -16
-3 -27 2 -22 4 4 15 62 24 130 11 88 19 121 29 119 7 -1 10 2 6 8 -10 16 -23
12 -36 -11z"/>
<path d="M2045 1405 c-28 -12 -23 -13 65 -14 52 -1 113 -3 135 -6 38 -5 38 -4
10 5 -16 6 -61 13 -99 16 -38 3 -72 7 -75 9 -3 1 -19 -3 -36 -10z"/>
<path d="M1712 1333 c-13 -82 -9 -109 6 -47 16 64 23 124 14 124 -5 0 -14 -34
-20 -77z"/>
<path d="M2980 1403 c-23 -8 -50 -35 -45 -43 13 -21 -52 -46 -67 -26 -4 6 -12
5 -21 -3 -10 -8 -17 -9 -22 -1 -3 5 -21 10 -38 9 -29 0 -26 -2 23 -20 144 -51
240 -92 256 -110 15 -17 16 -22 4 -45 -19 -34 -103 -99 -280 -216 -80 -53
-162 -114 -184 -136 -34 -36 -39 -47 -43 -104 -4 -48 -1 -72 10 -94 l16 -29
-6 50 c-7 68 11 128 48 159 17 14 27 31 23 37 -5 8 -1 8 14 0 15 -8 23 -8 28
1 5 7 3 8 -6 3 -8 -5 -11 -3 -8 6 2 7 20 22 39 32 19 11 37 24 41 31 4 6 8 7
8 3 0 -4 10 -2 23 5 12 7 26 11 30 10 5 -1 6 2 2 8 -3 5 -2 10 4 10 5 0 17 7
25 16 12 11 16 12 16 2 0 -7 7 -2 16 10 8 12 20 20 25 17 5 -4 9 -2 9 3 0 9
24 26 90 67 25 15 50 42 50 54 0 6 4 10 10 8 5 -1 18 15 28 35 19 36 19 38 1
68 -11 17 -26 33 -35 37 -10 4 -12 8 -5 13 6 3 13 22 16 41 3 27 -2 41 -24 67
-28 31 -41 36 -71 25z m40 -33 c0 -13 7 -20 20 -20 11 0 20 -4 20 -10 0 -5 -7
-10 -15 -10 -19 0 -19 -14 1 -34 13 -14 14 -16 0 -16 -8 0 -18 5 -21 10 -9 15
-25 12 -25 -5 0 -8 -4 -15 -10 -15 -5 0 -10 9 -10 19 0 14 -5 18 -20 14 -24
-6 -27 12 -4 21 13 5 14 9 4 21 -17 20 -5 31 15 15 14 -11 17 -10 22 8 7 28
23 29 23 2z"/>
<path d="M2394 1392 c3 -5 -3 -8 -12 -8 -95 0 -94 -6 4 -28 55 -12 106 -26
114 -31 20 -12 79 -17 60 -5 -8 5 -25 10 -38 10 -13 0 -20 4 -17 10 6 9 -8 15
-29 11 -18 -4 -66 22 -66 35 0 8 -5 14 -11 14 -5 0 -8 -4 -5 -8z"/>
<path d="M398 1383 c28 -2 76 -2 105 0 28 2 5 3 -53 3 -58 0 -81 -1 -52 -3z"/>
<path d="M168 1360 c-10 -9 -18 -26 -18 -38 0 -12 -5 -22 -11 -22 -5 0 -7 -4
-4 -10 3 -5 8 -18 10 -28 8 -42 27 -104 30 -100 3 2 0 20 -5 39 -25 85 -8 159
37 165 25 4 25 12 1 11 -13 0 -31 -7 -40 -17z"/>
<path d="M2010 1376 c0 -3 14 -12 30 -21 17 -9 30 -12 30 -8 0 5 33 7 72 7 40
-1 80 2 88 7 9 5 -25 9 -87 9 -56 0 -108 3 -117 6 -9 3 -16 4 -16 0z"/>
<path d="M3293 1355 c-37 -16 -42 -22 -47 -69 -4 -31 -1 -39 28 -61 26 -20 40
-24 65 -19 35 7 38 15 15 35 -14 11 -18 11 -29 -4 -17 -23 -29 -22 -22 3 4 16
0 20 -21 20 -24 0 -24 1 -8 13 15 11 16 17 7 35 -17 31 -13 37 9 17 20 -18 21
-18 35 1 14 18 14 18 15 -3 0 -17 6 -23 23 -24 19 0 20 -2 6 -11 -13 -9 -14
-16 -5 -34 15 -33 24 -30 32 11 4 22 10 32 18 28 6 -3 -3 7 -20 23 -50 47 -66
54 -101 39z"/>
<path d="M185 1333 c-21 -21 -17 -60 24 -213 17 -63 31 -125 31 -137 0 -13 5
-23 11 -23 5 0 8 4 4 9 -3 5 -1 12 5 16 6 4 8 11 5 16 -4 5 -3 15 2 22 12 19
14 47 3 47 -6 0 -10 5 -10 11 0 5 4 8 9 4 6 -3 7 6 2 22 -4 16 -6 34 -5 41 1
6 2 24 3 40 1 19 4 23 10 13 5 -8 11 -9 15 -3 3 6 1 14 -5 17 -35 22 -64 -98
-36 -154 9 -17 11 -33 6 -37 -15 -9 -29 44 -29 112 0 50 4 68 19 83 19 19 19
20 0 18 -10 -1 -22 -9 -25 -19 -6 -21 -23 -24 -25 -5 -9 86 3 140 26 119 5 -4
5 -1 1 6 -10 16 -21 15 -41 -5z"/>
<path d="M2320 1347 c0 -6 28 -15 149 -48 40 -11 75 -18 78 -15 6 5 -140 53
-189 62 -21 3 -38 4 -38 1z"/>
<path d="M2738 1313 c6 -2 12 -11 12 -19 0 -8 10 -14 24 -14 35 0 59 -27 51
-58 -8 -34 -29 -60 -89 -110 -28 -23 -72 -62 -98 -85 -26 -23 -59 -50 -73 -60
-14 -10 -34 -36 -45 -58 -27 -53 -52 -176 -47 -236 l3 -48 2 57 c1 31 6 59 10
62 4 2 9 19 10 37 2 18 9 40 17 49 8 9 12 20 8 23 -3 4 1 15 10 25 10 10 15
21 12 23 -2 3 15 26 39 52 23 26 42 48 41 49 -1 2 14 17 33 33 29 25 35 26 29
10 -7 -20 -7 -20 8 -1 8 11 15 24 15 29 0 4 5 5 10 2 6 -3 13 1 16 9 3 9 10
14 14 11 16 -10 79 55 91 93 6 20 16 40 22 44 11 6 82 -16 102 -32 7 -5 15 -7
18 -3 4 3 7 -4 7 -16 0 -12 -4 -20 -9 -17 -5 3 -11 -1 -15 -9 -3 -8 -13 -15
-22 -15 -10 0 -14 -3 -11 -6 3 -4 -17 -25 -46 -48 -29 -22 -55 -44 -58 -49 -3
-5 -10 -9 -15 -9 -24 -1 -211 -148 -188 -148 5 0 -12 -14 -38 -31 -29 -19 -48
-39 -48 -50 0 -11 -4 -19 -10 -19 -16 0 -12 -112 6 -171 24 -84 88 -201 123
-225 16 -12 28 -24 24 -27 -10 -11 58 12 73 23 7 7 17 9 22 6 5 -3 8 8 7 24
-1 17 2 30 7 30 16 0 3 23 -32 55 -33 32 -35 32 -73 19 -47 -17 -57 -17 -57
-4 0 6 -5 16 -10 23 -6 7 -18 21 -26 32 -15 19 -15 19 -9 -4 4 -12 18 -39 31
-58 13 -19 26 -43 29 -54 4 -10 10 -19 15 -19 15 0 23 21 11 33 -18 18 -13 29
8 17 26 -13 31 -13 31 5 0 8 5 15 10 15 6 0 10 -9 10 -20 0 -14 7 -20 23 -20
21 -1 22 -1 3 -15 -16 -12 -17 -18 -8 -27 19 -19 14 -30 -7 -18 -26 13 -31 13
-31 -5 0 -8 -4 -15 -10 -15 -5 0 -10 9 -10 20 0 11 -7 20 -15 20 -8 0 -15 -5
-15 -11 0 -23 -19 5 -66 97 -47 93 -49 101 -49 178 0 60 4 87 17 105 26 37
125 118 218 179 108 71 256 188 265 209 7 19 -2 25 -105 71 -70 30 -194 73
-209 71 -3 0 0 -3 7 -6z"/>
<path d="M545 1289 c-27 -5 -60 -7 -72 -4 -13 3 -23 1 -23 -5 0 -6 -10 -8 -25
-4 -15 4 -25 2 -25 -5 0 -7 24 -9 78 -3 42 4 120 7 172 6 88 0 101 -3 174 -37
43 -20 86 -37 95 -37 9 1 0 8 -19 16 -19 8 -37 18 -40 22 -8 12 -82 53 -75 42
3 -6 -1 -7 -9 -4 -9 3 -14 9 -11 13 6 10 -160 10 -220 0z"/>
<path d="M2075 1270 c-14 -15 -14 -21 -3 -39 7 -12 20 -22 28 -22 39 -4 59 -7
86 -13 16 -4 49 -9 74 -12 77 -7 94 -11 130 -26 37 -16 110 -89 110 -111 0 -7
-17 -31 -37 -53 -20 -21 -33 -32 -28 -24 7 12 5 12 -11 -1 -10 -9 -27 -19 -37
-22 -10 -4 -15 -11 -12 -17 3 -5 -1 -10 -9 -10 -9 0 -16 -7 -16 -15 0 -8 -5
-15 -11 -15 -16 0 -51 -89 -51 -131 0 -20 6 -56 12 -80 7 -24 13 -57 15 -74 2
-16 13 -57 23 -90 17 -51 27 -65 68 -93 66 -45 71 -72 7 -32 -57 36 -107 92
-153 173 -18 32 -35 56 -37 53 -3 -3 2 -15 10 -27 9 -11 13 -27 11 -33 -3 -7
7 -22 21 -34 14 -12 25 -26 25 -31 0 -12 41 -75 70 -109 11 -13 17 -29 13 -34
-3 -7 -1 -8 5 -4 9 5 9 13 2 26 -20 36 -9 34 26 -5 19 -22 33 -34 29 -27 -4 7
0 12 9 12 8 0 20 9 26 21 8 14 17 18 28 14 27 -11 62 -13 56 -4 -3 5 0 9 5 9
17 0 13 36 -6 51 -9 8 -22 27 -28 43 -7 16 -15 25 -18 20 -3 -5 8 -29 25 -53
23 -34 27 -46 16 -52 -19 -12 -23 -11 -43 11 -10 11 -26 20 -36 20 -10 0 -21
5 -25 12 -5 7 -3 8 7 3 8 -5 6 1 -5 13 -10 12 -23 19 -27 16 -13 -8 -50 6 -44
16 3 5 1 11 -3 14 -5 3 -8 15 -7 28 1 13 -8 43 -20 68 -31 62 -40 128 -25 191
14 58 59 110 163 187 76 57 77 82 6 146 -52 47 -85 60 -193 77 -34 6 -83 17
-110 24 -27 8 -62 15 -78 15 -15 0 -28 5 -28 10 0 14 51 12 97 -4 22 -8 71
-19 109 -25 121 -19 172 -39 225 -88 77 -72 68 -110 -41 -190 -72 -53 -105
-89 -124 -135 -20 -47 -20 -118 -1 -144 13 -17 14 -15 11 28 -2 27 2 63 9 80
25 68 33 83 41 81 5 -2 9 1 9 6 0 5 4 13 9 18 5 5 6 3 2 -4 -4 -7 -2 -13 3
-13 6 0 11 7 11 16 0 8 5 12 10 9 7 -4 7 -12 0 -25 -12 -23 -13 -33 -1 -26 5
4 5 -10 1 -31 -5 -22 -5 -43 1 -52 8 -14 9 -14 8 -1 -4 24 13 92 33 140 19 43
166 200 187 200 6 0 35 24 66 54 43 43 55 61 55 85 0 17 -3 31 -7 32 -5 0 -21
2 -38 4 -16 2 -24 2 -17 -1 6 -3 9 -11 5 -17 -4 -6 0 -8 9 -4 11 4 15 0 14
-11 -2 -9 -8 -18 -14 -20 -7 -2 -10 -8 -6 -13 3 -5 -6 -23 -20 -40 -14 -17
-26 -28 -26 -24 0 3 -6 0 -14 -7 -8 -7 -12 -16 -9 -20 2 -5 -2 -8 -10 -8 -7 0
-20 -11 -27 -25 -18 -34 -46 -32 -53 3 -6 25 -57 92 -71 92 -4 0 -16 9 -28 20
-12 11 -29 20 -37 21 -9 0 -23 2 -31 5 -8 2 -49 10 -90 18 -41 8 -95 22 -120
31 -25 9 -53 14 -63 11 -9 -2 -15 -1 -12 4 10 16 -45 7 -60 -10z"/>
<path d="M448 1248 c-43 -6 -78 -14 -78 -17 0 -4 24 -4 53 0 51 7 273 5 312
-2 11 -2 22 -7 25 -10 6 -8 143 -50 147 -45 2 2 -34 20 -79 42 -79 37 -88 39
-193 40 -60 1 -145 -3 -187 -8z"/>
<path d="M1526 1245 c-3 -9 -10 -14 -15 -10 -6 3 -8 -4 -6 -15 2 -12 -2 -23
-10 -27 -8 -3 -12 -9 -9 -14 3 -5 1 -9 -4 -9 -5 0 -14 -11 -21 -24 -29 -53
-178 -103 -219 -73 -7 6 -16 7 -19 3 -31 -30 129 -36 186 -6 47 23 96 83 116
141 14 39 15 70 1 34z"/>
<path d="M179 1145 c-5 -19 -4 -32 3 -41 5 -7 8 -16 7 -20 -3 -20 2 -34 12
-34 13 0 3 53 -11 58 -4 2 -6 12 -3 22 3 11 3 20 -1 20 -3 0 -7 -2 -7 -5z"/>
<path d="M662 1109 c7 -5 24 -9 37 -9 14 0 65 -5 113 -11 69 -9 98 -18 131
-40 54 -37 68 -37 33 0 -34 35 -113 61 -186 60 -30 0 -75 2 -98 4 -27 3 -39 1
-30 -4z"/>
<path d="M636 1072 c-4 -8 18 -11 71 -11 47 0 96 -6 122 -15 24 -9 46 -14 49
-12 2 3 13 -3 24 -14 21 -19 68 -33 68 -19 0 13 -53 46 -95 58 -60 17 -231 26
-239 13z"/>
<path d="M1165 1051 c38 -24 95 -37 95 -22 0 6 -10 12 -22 13 -37 2 -42 3 -65
16 -35 19 -41 14 -8 -7z"/>
<path d="M1560 1038 c0 -47 -30 -114 -71 -155 -34 -36 -48 -43 -94 -48 -30 -4
-70 -5 -90 -3 -19 2 -32 1 -27 -4 14 -14 149 -22 157 -9 5 9 11 7 21 -6 9 -12
12 -13 9 -3 -3 9 8 24 30 39 19 13 35 28 35 33 0 5 4 7 9 4 17 -11 43 155 27
171 -3 4 -6 -5 -6 -19z"/>
<path d="M510 1043 c-8 -2 -21 -6 -28 -9 -7 -2 -10 -8 -7 -14 4 -6 17 -4 36 5
39 21 39 32 -1 18z"/>
<path d="M208 996 c-3 -13 1 -35 8 -47 l13 -24 1 23 c0 12 -4 22 -9 22 -4 0
-6 11 -3 25 2 14 2 25 -1 25 -2 0 -7 -11 -9 -24z"/>
<path d="M881 1014 c-1 -8 -44 -15 -123 -20 l-123 -9 137 -5 c134 -5 137 -6
182 -37 43 -30 62 -33 34 -5 -7 7 -9 12 -5 12 4 0 -2 9 -13 20 -11 11 -29 20
-40 20 -11 0 -20 5 -20 11 0 5 -4 8 -9 5 -5 -4 -12 0 -14 6 -4 8 -6 9 -6 2z"/>
<path d="M1512 990 c-12 -16 -22 -37 -22 -46 0 -11 -5 -14 -17 -10 -10 4 -14
4 -11 0 8 -8 -16 -34 -32 -34 -6 0 -9 -4 -6 -9 7 -11 -22 -23 -35 -15 -5 3 -9
0 -9 -7 0 -9 -3 -9 -14 0 -11 9 -16 9 -21 0 -4 -6 -19 -9 -36 -5 -16 3 -29 1
-29 -4 0 -6 30 -10 68 -10 79 0 119 20 155 77 22 33 43 93 34 93 -2 0 -13 -13
-25 -30z"/>
<path d="M465 973 c-13 -19 -13 -24 0 -36 15 -16 28 -15 120 7 l60 14 -63 1
c-35 1 -72 -4 -84 -10 -11 -6 -22 -8 -26 -5 -13 14 20 28 84 35 51 6 60 9 34
12 -91 8 -110 5 -125 -18z"/>
<path d="M3245 970 c-4 -6 -11 -7 -17 -4 -7 4 -8 2 -4 -4 4 -7 3 -12 -1 -12
-17 0 -6 -71 14 -96 21 -25 73 -42 73 -23 0 4 6 6 13 3 19 -7 34 14 42 58 6
32 3 40 -20 63 -29 26 -88 35 -100 15z m86 -40 c23 0 25 -15 3 -24 -13 -5 -14
-9 -4 -21 16 -19 4 -33 -12 -17 -10 10 -16 8 -30 -10 l-18 -23 0 27 c0 22 -4
25 -22 21 -23 -4 -23 -4 -3 12 17 13 18 19 7 35 -11 19 -10 20 11 15 18 -5 27
-1 32 12 8 16 9 16 12 -4 3 -15 12 -23 24 -23z"/>
<path d="M650 957 c3 -3 34 -8 70 -11 125 -12 150 -15 169 -25 10 -6 21 -7 25
-4 3 3 6 2 6 -3 0 -5 9 -10 21 -11 28 -2 19 19 -17 37 -20 10 -68 16 -154 18
-69 2 -123 2 -120 -1z"/>
<path d="M2980 933 c-29 -11 -58 -45 -55 -64 2 -10 -1 -21 -6 -24 -5 -4 9 -22
31 -40 37 -31 43 -33 73 -23 37 13 47 24 47 55 0 12 5 23 11 25 15 5 -54 78
-72 77 -8 0 -21 -3 -29 -6z m63 -53 c21 -1 21 -1 3 -15 -16 -12 -17 -17 -6
-30 16 -19 5 -34 -12 -17 -10 10 -16 8 -30 -10 l-18 -23 0 28 c0 24 -3 27 -20
22 -25 -8 -26 3 -3 20 15 11 15 15 3 30 -12 15 -11 16 12 10 19 -5 27 -2 33
12 8 16 9 16 12 -4 3 -16 12 -23 26 -23z"/>
<path d="M648 900 c-9 -10 -14 -21 -10 -24 3 -3 -3 -6 -13 -6 -14 0 -16 -6
-11 -32 9 -44 34 -81 52 -74 8 3 14 1 14 -4 0 -5 7 -6 17 -3 12 5 14 3 8 -7
-5 -7 4 -5 18 6 15 10 27 24 27 31 0 6 4 13 9 15 6 2 12 15 15 31 3 16 1 25
-5 22 -16 -11 -10 7 9 21 12 10 13 13 2 9 -8 -3 -33 4 -55 15 -47 24 -55 24
-77 0z m72 -22 c22 14 25 9 10 -18 -7 -14 -6 -20 8 -25 15 -6 15 -8 -5 -15
-15 -6 -20 -15 -16 -29 3 -12 1 -21 -5 -21 -5 0 -12 10 -15 22 -6 21 -7 21
-25 5 -27 -25 -37 -21 -18 8 16 24 15 25 -9 31 -14 3 -23 10 -20 14 3 5 14 6
25 3 17 -4 20 0 20 23 1 28 1 28 16 9 12 -16 18 -18 34 -7z"/>
<path d="M1508 818 c3 -14 1 -19 -6 -15 -6 4 -9 0 -8 -10 2 -10 -7 -23 -18
-29 -12 -6 -20 -16 -18 -23 1 -6 -5 -14 -13 -17 -8 -4 -15 -11 -15 -18 0 -6
-14 -27 -31 -46 -17 -19 -28 -29 -24 -21 6 11 4 11 -11 3 -20 -11 -70 10 -87
36 -4 6 -17 12 -27 12 -11 0 -19 3 -17 8 1 4 -1 8 -6 9 -4 2 -20 18 -37 35
-16 18 -30 27 -30 21 0 -19 109 -125 152 -147 50 -27 76 -13 127 66 22 35 47
70 55 78 25 26 37 67 22 73 -10 4 -12 -1 -8 -15z"/>
<path d="M435 778 c-22 -26 -31 -44 -24 -48 6 -4 10 -10 9 -14 -1 -4 0 -15 3
-26 6 -25 86 -48 98 -28 5 7 14 13 21 13 7 0 13 5 14 10 0 6 4 18 9 28 4 11 3
29 -4 44 -11 25 -13 25 -29 9 -16 -16 -16 -18 8 -37 l25 -21 -27 5 c-24 4 -28
1 -28 -21 0 -25 -1 -25 -14 -7 -12 17 -16 18 -32 5 -16 -14 -17 -13 -11 9 4
17 1 29 -11 37 -16 12 -15 13 6 14 17 0 22 6 23 28 0 26 1 26 11 5 9 -18 14
-20 34 -11 13 6 24 18 24 25 0 8 -4 12 -9 9 -5 -4 -21 -2 -35 4 -22 8 -29 5
-61 -32z"/>
<path d="M859 783 c-26 -30 -46 -79 -27 -67 6 4 9 1 6 -7 -7 -21 23 -48 60
-55 30 -6 38 -2 66 28 29 32 31 37 20 64 -16 38 -33 52 -70 60 -24 4 -34 0
-55 -23z m47 -10 c10 -15 15 -16 25 -5 7 6 18 12 23 12 6 0 5 -5 -2 -12 -18
-18 -15 -34 11 -46 22 -10 22 -11 -5 -11 -22 -1 -28 -6 -28 -23 -1 -22 -1 -23
-15 -4 -12 16 -18 17 -27 8 -19 -19 -30 -14 -18 7 14 26 13 28 -12 36 -22 7
-22 8 5 12 23 4 28 9 24 24 -6 24 2 24 19 2z"/>
<path d="M1088 793 c6 -2 9 -10 6 -15 -5 -7 -2 -8 5 -4 8 6 11 2 9 -10 -2 -11
2 -18 9 -17 7 2 26 -18 44 -43 34 -50 87 -104 101 -104 5 0 7 -4 4 -9 -8 -13
89 -44 113 -36 22 7 81 76 81 94 0 6 5 11 10 11 6 0 10 7 10 16 0 8 4 12 10 9
6 -3 7 1 4 9 -3 9 -2 16 3 16 9 0 43 62 43 77 0 4 -32 -39 -71 -95 -50 -73
-78 -104 -96 -108 -42 -11 -105 30 -197 128 -46 48 -88 88 -92 87 -5 0 -3 -3
4 -6z"/>
<path d="M1832 740 c0 -63 1 -63 8 -20 4 25 4 54 -1 65 -5 13 -8 -3 -7 -45z"/>
<path d="M1799 763 c-1 -10 -1 -37 -1 -60 -1 -24 -4 -43 -8 -43 -4 0 -5 -11
-2 -25 2 -14 -3 -40 -11 -57 -10 -22 -16 -65 -16 -133 -1 -55 -4 -120 -7 -145
-13 -90 7 -29 31 94 18 94 24 160 24 256 0 72 -2 130 -4 130 -3 0 -5 -8 -6
-17z m-5 -210 c-4 -21 -7 -43 -7 -50 0 -7 -4 -10 -10 -6 -8 5 -1 68 9 85 11
18 14 6 8 -29z"/>
<path d="M2805 731 c-3 -6 -14 -8 -25 -6 -11 2 -19 1 -19 -3 3 -19 -2 -33 -10
-27 -6 3 -8 -4 -6 -15 2 -11 0 -20 -4 -20 -4 0 -8 -7 -8 -15 0 -8 4 -15 9 -15
4 0 8 -6 8 -12 0 -7 14 -21 30 -30 27 -15 34 -16 64 -3 27 12 37 24 45 52 9
32 8 40 -6 51 -9 6 -13 12 -7 12 5 0 -4 9 -21 20 -34 22 -41 24 -50 11z m53
-52 l27 0 -23 -16 c-21 -15 -22 -17 -6 -34 18 -20 9 -25 -16 -9 -11 7 -18 3
-27 -13 -12 -22 -12 -22 -13 4 0 23 -3 26 -27 22 l-28 -5 23 19 c18 14 20 21
10 31 -16 16 -2 28 16 13 12 -10 16 -8 22 11 l8 23 4 -22 c2 -17 10 -23 30
-24z"/>
<path d="M2230 675 c0 -14 52 -119 77 -155 14 -19 23 -28 20 -20 -3 8 -11 32
-18 53 -7 21 -21 43 -31 48 -10 6 -16 14 -13 20 4 5 1 9 -5 9 -6 0 -9 3 -6 8
2 4 -2 16 -10 27 -8 10 -14 15 -14 10z"/>
<path d="M1073 614 c-12 -14 -22 -27 -22 -31 1 -3 -5 -9 -11 -13 -16 -10 -3
-70 15 -70 22 0 28 33 9 47 -16 12 -16 13 4 13 17 0 22 6 22 28 l1 27 13 -23
c11 -22 14 -22 28 -8 18 18 33 9 17 -10 -13 -16 -3 -34 19 -34 14 0 14 -2 3
-9 -8 -5 -21 -7 -28 -4 -10 4 -14 0 -13 -13 4 -33 0 -38 -13 -20 -12 16 -17
17 -36 6 -13 -6 -19 -16 -15 -20 13 -12 57 -16 72 -7 6 5 12 5 12 1 0 -4 11 7
25 26 23 32 24 35 9 58 -11 17 -12 22 -3 16 8 -4 1 6 -15 23 -17 18 -34 29
-38 27 -5 -3 -14 -1 -21 4 -9 8 -19 3 -34 -14z"/>
<path d="M1530 602 c-38 -38 -40 -42 -28 -69 21 -48 55 -73 88 -63 40 12 50
19 50 36 0 9 5 12 12 8 7 -4 8 -3 4 4 -4 7 -3 12 3 12 15 0 -6 50 -30 73 -10
10 -19 15 -19 11 0 -4 -9 1 -20 11 -19 17 -21 17 -60 -23z m44 4 c-8 -20 14
-30 33 -14 15 11 16 10 10 -11 -4 -17 -1 -29 11 -37 16 -12 15 -13 -5 -14 -18
0 -23 -6 -24 -27 0 -28 -1 -28 -11 -5 -12 24 -23 28 -33 12 -12 -20 -26 -10
-15 10 9 16 8 22 -5 26 -8 3 -13 10 -10 15 3 4 13 5 22 2 13 -5 15 -2 10 20
-6 23 -3 28 20 36 1 1 0 -5 -3 -13z"/>
<path d="M1836 609 c-9 -49 -7 -186 5 -279 6 -47 12 -95 12 -107 3 -38 21 -6
22 39 1 24 5 61 10 83 7 35 6 38 -7 27 -12 -10 -17 -10 -25 0 -10 14 -10 201
1 242 3 14 2 26 -3 26 -4 0 -11 -14 -15 -31z"/>
<path d="M2445 585 c19 -109 19 -102 2 -80 -9 11 -17 15 -17 9 0 -11 94 -104
105 -104 4 0 -3 14 -15 30 -12 17 -26 27 -32 24 -6 -4 -9 -3 -6 2 4 5 -5 41
-18 79 -14 39 -22 57 -19 40z"/>
<path d="M1730 460 c-1 -25 -2 -49 -1 -55 2 -8 -7 -64 -24 -158 -3 -15 0 -36
7 -46 12 -17 16 -17 33 -5 10 8 16 14 12 14 -3 0 5 11 19 25 30 30 34 31 34 6
0 -10 7 -25 16 -32 15 -12 16 -11 11 6 -3 11 -9 72 -13 135 -8 116 -11 117
-28 5 -11 -67 -28 -115 -43 -115 -7 0 -13 -9 -13 -20 0 -11 -5 -20 -11 -20 -7
0 -9 8 -4 23 9 29 19 237 12 262 -2 11 -6 0 -7 -25z"/>
<path d="M1898 315 c-16 -77 -9 -105 9 -37 10 36 17 112 10 112 -1 0 -10 -34
-19 -75z"/>
<path d="M1148 310 c13 -23 19 -26 34 -16 10 6 18 17 18 24 0 7 -4 10 -10 7
-5 -3 -16 -3 -22 2 -28 17 -36 11 -20 -17z"/>
<path d="M1109 307 c-26 -20 -41 -54 -26 -60 9 -4 9 -6 -1 -6 -9 -1 -10 -4 -2
-13 6 -7 16 -20 23 -29 7 -9 26 -19 43 -22 25 -5 38 0 62 21 33 29 37 58 16
99 l-11 23 -12 -27 c-10 -23 -10 -29 3 -39 18 -13 11 -25 -10 -17 -10 4 -14
-3 -14 -23 0 -26 -1 -26 -13 -10 -11 15 -17 17 -35 7 -22 -12 -32 1 -12 14 16
10 12 21 -12 33 -23 10 -23 11 5 11 22 1 27 6 27 26 0 28 -7 30 -31 12z"/>
<path d="M2780 312 c-23 -8 -40 -35 -36 -55 2 -9 0 -15 -5 -11 -21 13 -6 -34
21 -65 l30 -33 49 18 c28 10 48 20 47 23 -2 3 13 7 33 7 40 2 101 28 101 44 0
6 -5 10 -12 10 -6 0 -8 -3 -5 -7 7 -6 -23 -22 -72 -38 -16 -5 -21 -4 -17 4 5
7 1 8 -10 4 -14 -5 -16 -2 -12 20 3 17 0 28 -9 31 -8 3 -11 11 -7 17 4 7 3 9
-4 5 -6 -3 -15 1 -20 9 -9 17 -46 25 -72 17z m71 -52 c10 0 19 -4 19 -10 0 -5
-7 -10 -15 -10 -18 0 -19 -12 -3 -28 16 -16 2 -28 -17 -12 -12 10 -16 9 -21
-4 -8 -22 -24 -20 -24 3 0 15 -5 18 -22 13 -23 -5 -23 -5 -4 16 15 18 16 24 6
37 -14 17 -7 19 20 5 14 -8 19 -5 25 13 l8 22 4 -22 c3 -15 12 -23 24 -23z"/>
<path d="M1483 277 c-39 -33 -52 -57 -32 -57 8 0 7 -6 -2 -17 -7 -10 -10 -15
-5 -11 4 4 18 -5 30 -19 30 -35 82 -40 107 -10 11 12 24 29 29 38 14 24 -20
78 -58 94 -30 13 -33 12 -69 -18z m53 -26 c2 -2 13 4 24 14 22 20 26 14 10
-16 -9 -15 -7 -21 5 -25 21 -9 19 -24 -4 -24 -14 0 -18 -5 -14 -20 7 -25 -5
-26 -23 -2 -13 16 -15 16 -30 -3 -16 -19 -16 -19 -10 9 5 21 2 32 -11 42 -17
13 -17 13 5 14 17 0 22 6 22 28 1 25 1 26 12 7 6 -11 13 -22 14 -24z"/>
<path d="M3042 223 c-9 -10 -57 -31 -105 -46 -48 -16 -87 -31 -87 -33 0 -3 10
-2 23 2 12 4 30 7 40 6 9 0 17 4 17 9 0 5 6 9 13 7 18 -4 97 30 97 43 0 5 4 8
9 5 5 -3 11 1 15 9 7 20 0 19 -22 -2z"/>
</g>
</svg>
