<svg xmlns="http://www.w3.org/2000/svg" viewBox="0 0 375 306" width="375" height="306">
  <!-- Одууд -->
  <circle cx="184.3" cy="29.72" r="2" fill="white"/>
  <circle cx="196.9" cy="29.39" r="2" fill="white"/>
  <circle cx="238.5" cy="29.41" r="2" fill="white"/>
  <circle cx="69.5" cy="287" r="2" fill="white"/>
  <circle cx="85.6" cy="283.4" r="2" fill="white"/>
  <circle cx="50.5" cy="275" r="2" fill="white"/>
  <circle cx="78.7" cy="265.9" r="2" fill="white"/>
  <circle cx="85.9" cy="278.3" r="2" fill="white"/>
  <circle cx="19.5" cy="283.3" r="2" fill="white"/>
  <circle cx="63.0" cy="242.3" r="2" fill="white"/>
  <circle cx="281.9" cy="233.3" r="2" fill="white"/>
  <circle cx="260.2" cy="244.8" r="2" fill="white"/>
  <circle cx="321.3" cy="255" r="2" fill="white"/>
  <circle cx="304.2" cy="222.3" r="2" fill="white"/>
  <circle cx="324.5" cy="231" r="2" fill="white"/>
  <circle cx="298.0" cy="194.7" r="2" fill="white"/>
  <circle cx="187.0" cy="176.1" r="2" fill="white"/>
  <circle cx="181.2" cy="178.9" r="2" fill="white"/>
  <circle cx="179.9" cy="176.3" r="2" fill="white"/>
  <circle cx="190.0" cy="162.7" r="2" fill="white"/>
</svg>